<svg version="1" xmlns="http://www.w3.org/2000/svg" width="876" height="876" viewBox="0 0 657.000000 657.000000"><path d="M149.6 248.2c1.7 1.8 5.3 5.8 8 8.7 2.7 3 6.3 7 8.1 8.9 1.7 1.8 4.8 5.3 6.9 7.8l3.8 4.4H244.1l12.7-11.8c7-6.4 14.9-13.8 17.7-16.4l5-4.8H146.6l3 3.2zM353.6 254.3c-5.4 5.1-13.4 12.6-17.7 16.7l-7.9 7.5-.5 8.5c-.3 4.7-.8 10.7-1 13.5-.3 2.7-.7 7-1 9.5-1.8 18-1.8 18.1 2.2 22.6 2.1 2.2 6.3 6.8 9.3 10.2l5.5 6.2 6.8-6.3c6.4-5.9 6.9-6.6 7.2-11.2.7-7.5 1.5-17.3 2.1-24 .8-9.4 1.3-15.4 1.9-23.5.3-4.1.8-9.3 1-11.5 1-10 2.4-27.5 2.2-27.5-.1 0-4.6 4.2-10.1 9.3zM451.4 247.6c-1.6 1.5-5.5 5.1-8.7 8.2-6.3 5.9-6.2 5.1-1.2 10.8.6.6 3 3.4 5.5 6.2l4.4 5.2h34.1l34-.1 6.5-6.2c3.6-3.4 11.5-10.8 17.5-16.4l11-10.3H454.3l-2.9 2.6zM139.9 252c0 .3-.2 1.6-.3 3-1.4 13.6-1.8 18.3-2.2 23.5-.4 6-.7 9.5-2 23-.8 8.9-1 11.6-1.9 24.7l-.7 10.8 3.5 3.7c2 2.1 4.4 4.8 5.4 6l1.8 2.3 4.1-3.8c2.3-2 7.3-6.7 11.2-10.3l7-6.6.6-6.9c.4-3.8.9-8.7 1.1-10.9.3-2.2.7-8.3 1.1-13.5.3-5.2.7-10.2 1-11 .2-.9-.6-2.7-1.9-4-19.7-22.1-27.6-30.7-27.8-30zM426.8 270.3c-1.4 1.3-5.3 4.8-8.6 7.9-5.9 5.5-6.1 5.7-6.6 11.9-.4 3.5-.9 8.4-1.1 10.9-.3 2.5-.7 7.2-.9 10.5-1 14.4-1.9 23-2.2 23.7-.4.6 10.1 13.3 11.1 13.3.4 0 7.3-6.2 18.6-16.7 3.8-3.5 4.3-5.7 5.4-22.8.4-6.1 1.6-19.4 2-22.1.3-2.1-1-4.2-6.6-10.5-3.9-4.3-7.4-8-7.7-8.1-.4-.2-1.9.7-3.4 2zM167.6 339c-1.7.6-17.6 15.1-17.6 16 0 .4 1.2 2 2.8 3.6 1.5 1.7 4.7 5.2 7.1 7.8l4.4 4.9 32.6-.1c17.9 0 33.8 0 35.2-.1 1.7-.1 5.2-2.6 11.2-8.4l8.7-8.2-7.5-8-7.5-7.9-34-.1c-18.8 0-34.7.2-35.4.5zM335.4 366.8c-3.2 3-8.3 7.7-11.1 10.3-4.2 3.9-5.3 5.5-5.4 8.1 0 1.8-.2 4.2-.4 5.3-.2 1-.7 6.2-1 11.5-.4 5.2-.8 10.5-1 11.8-.2 1.2-.7 5.9-1 10.5-.6 8-.5 8.3 2.2 11.2 3.3 3.5 21.8 23.8 25.1 27.5l2.2 2.5.1-4c.1-2.2.3-4.9.4-6 .1-1.1.5-5.8.9-10.5s.9-9.9 1.1-11.5c.3-1.7.7-7.1 1.1-12 .3-5 .8-10.8.9-13 .2-2.2.6-6.5.9-9.5.3-3 .8-8.9 1.2-13 .3-4.1.7-8.5.9-9.7.3-2-3-6.7-9.1-12.9l-2-2.1-6 5.5zM135.3 367.8c-6 5.5-6.2 5.9-6.7 11.7-.3 3.3-.8 8.5-1.1 11.5-.3 3-.7 8.6-1 12.5-.3 3.8-.7 9.7-1.1 13-1.1 11.8-1.3 15.1-1.9 22.5-.3 4.1-.8 10.2-1.1 13.4l-.6 5.9 3.4-2.8c1.8-1.5 7.7-6.8 13-11.8 5.3-4.9 11.8-10.8 14.3-13.1 5-4.6 5-4.5 6-16.6.4-4.7.8-10.1 1-12 .2-1.9.6-7.3.9-12l.6-8.5-5-5.5c-2.8-3-6.7-7.4-8.7-9.8-1.9-2.3-4-4.2-4.7-4.2-.6.1-3.9 2.7-7.3 5.8zM410.3 367.8c-6.9 6.3-6.1 3.8-7.8 24.7-.4 4.4-.8 9.6-1 11.5-.2 1.9-.6 7.8-1 13l-.6 9.5 7.3 7.9 7.4 7.9 5.9-5.4c12.6-11.6 12.5-11.4 12.6-16.1.1-5.5.4-9.7 1.2-17.8.4-3.6.9-9.8 1.3-13.7l.7-7.3-6.5-7.2c-3.5-4-7.5-8.5-8.8-10.1-1.3-1.5-2.8-2.7-3.4-2.7-.6.1-3.9 2.7-7.3 5.8zM159.4 435.8c-4.4 3.9-23.1 21.1-28.3 25.9l-3.4 3.3h66.1c36.4 0 66.2-.2 66.2-.4s-1.5-1.9-3.2-3.8c-1.8-1.9-6.5-7-10.5-11.4-3.9-4.3-9-9.9-11.3-12.4l-4.1-4.5-33.8-.1h-33.9l-3.8 3.4zM429.5 440.3c-4.7 4.3-8.5 8.2-8.5 8.6 0 .3 3.3 4.1 7.3 8.4l7.2 7.8 49.8-.3 49.8-.3-3.6-4c-2-2.2-7.6-8.3-12.5-13.5-4.8-5.2-9.7-10.6-10.8-12l-2-2.5-34.1-.1-34.1-.1-8.5 8z"/></svg>